<svg width="230" height="106" viewBox="0 0 230 106" fill="none" xmlns="http://www.w3.org/2000/svg">
<path d="M49.5 73L54.1262 83.1326L65.1924 84.4012L56.9853 91.9321L59.1985 102.849L49.5 97.3705L39.8015 102.849L42.0147 91.9321L33.8076 84.4012L44.8738 83.1326L49.5 73Z" fill="#FBBC05"/>
<path d="M82.5 73L87.1262 83.1326L98.1924 84.4012L89.9853 91.9321L92.1985 102.849L82.5 97.3705L72.8015 102.849L75.0147 91.9321L66.8076 84.4012L77.8738 83.1326L82.5 73Z" fill="#FBBC05"/>
<path d="M115.5 73L120.126 83.1326L131.192 84.4012L122.985 91.9321L125.198 102.849L115.5 97.3705L105.802 102.849L108.015 91.9321L99.8076 84.4012L110.874 83.1326L115.5 73Z" fill="#FBBC05"/>
<path d="M148.5 73L153.126 83.1326L164.192 84.4012L155.985 91.9321L158.198 102.849L148.5 97.3705L138.802 102.849L141.015 91.9321L132.808 84.4012L143.874 83.1326L148.5 73Z" fill="#FBBC05"/>
<path d="M181.5 73L186.126 83.1326L197.192 84.4012L188.985 91.9321L191.198 102.849L181.5 97.3705L171.802 102.849L174.015 91.9321L165.808 84.4012L176.874 83.1326L181.5 73Z" fill="#FBBC05"/>
<path d="M98.3024 40.0001C98.3024 50.8268 89.8182 58.8049 79.4062 58.8049C68.9943 58.8049 60.5101 50.8268 60.5101 40.0001C60.5101 29.0971 68.9943 21.1953 79.4062 21.1953C89.8182 21.1953 98.3024 29.0971 98.3024 40.0001ZM90.0305 40.0001C90.0305 33.2344 85.1133 28.6053 79.4062 28.6053C73.6992 28.6053 68.7819 33.2344 68.7819 40.0001C68.7819 46.6979 73.6992 51.3949 79.4062 51.3949C85.1133 51.3949 90.0305 46.6894 90.0305 40.0001Z" fill="#EA4335"/>
<path d="M139.067 40.0001C139.067 50.8268 130.583 58.8049 120.171 58.8049C109.759 58.8049 101.275 50.8268 101.275 40.0001C101.275 29.1055 109.759 21.1953 120.171 21.1953C130.583 21.1953 139.067 29.0971 139.067 40.0001ZM130.795 40.0001C130.795 33.2344 125.878 28.6053 120.171 28.6053C114.464 28.6053 109.547 33.2344 109.547 40.0001C109.547 46.6979 114.464 51.3949 120.171 51.3949C125.878 51.3949 130.795 46.6894 130.795 40.0001Z" fill="#FBBC05"/>
<path d="M178.133 22.3314V56.0918C178.133 69.9792 169.929 75.6512 160.231 75.6512C151.101 75.6512 145.606 69.5553 143.534 64.5701L150.736 61.5773C152.018 64.6379 155.161 68.2497 160.222 68.2497C166.43 68.2497 170.278 64.426 170.278 57.2279V54.5234H169.989C168.137 56.804 164.571 58.7964 160.069 58.7964C150.651 58.7964 142.023 50.6064 142.023 40.0679C142.023 29.4531 150.651 21.1953 160.069 21.1953C164.562 21.1953 168.129 23.1877 169.989 25.4005H170.278V22.3399H178.133V22.3314ZM170.864 40.0679C170.864 33.4464 166.439 28.6053 160.808 28.6053C155.101 28.6053 150.32 33.4464 150.32 40.0679C150.32 46.6216 155.101 51.3949 160.808 51.3949C166.439 51.3949 170.864 46.6216 170.864 40.0679Z" fill="#4285F4"/>
<path d="M191.085 2.54297V57.6517H183.017V2.54297H191.085Z" fill="#34A853"/>
<path d="M222.524 46.1899L228.945 50.4629C226.873 53.5236 221.879 58.7971 213.25 58.7971C202.55 58.7971 194.558 50.5392 194.558 39.9923C194.558 28.8095 202.618 21.1875 212.325 21.1875C222.1 21.1875 226.881 28.9536 228.444 33.1503L229.301 35.2868L204.121 45.6982C206.049 49.471 209.047 51.3955 213.25 51.3955C217.463 51.3955 220.384 49.3269 222.524 46.1899ZM202.762 39.4242L219.594 32.4466C218.669 30.0982 215.883 28.4618 212.605 28.4618C208.401 28.4618 202.55 32.1668 202.762 39.4242V39.4242Z" fill="#EA4335"/>
<path d="M29.9705 35.1084V27.1304H56.9007C57.164 28.5208 57.2999 30.1656 57.2999 31.946C57.2999 37.9317 55.6608 45.3332 50.3784 50.6067C45.2403 55.948 38.6755 58.7967 29.979 58.7967C13.86 58.7967 0.305725 45.6893 0.305725 29.5976C0.305725 13.5058 13.86 0.398438 29.979 0.398438C38.8963 0.398438 45.2488 3.89148 50.0217 8.44431L44.3826 14.0739C40.96 10.8691 36.323 8.37648 29.9705 8.37648C18.1997 8.37648 8.9937 17.8467 8.9937 29.5976C8.9937 41.3484 18.1997 50.8187 29.9705 50.8187C37.6054 50.8187 41.9537 47.758 44.7393 44.9771C46.9983 42.7219 48.4845 39.5002 49.0705 35.1L29.9705 35.1084V35.1084Z" fill="#4285F4"/>
</svg>
