<svg id="Layer_1" data-name="Layer 1" xmlns="http://www.w3.org/2000/svg" viewBox="0 0 659.99 306.06"><defs><style>.cls-1{fill:#fc0;}.cls-2{fill:#1a1a1a;fill-rule:evenodd;}</style></defs><path class="cls-1" d="M90.71,87.84q0-17.82,6.93-31.62A51.61,51.61,0,0,1,116.47,35a49.18,49.18,0,0,1,26.58-7.43q12.84,0,22.45,5.31a45.66,45.66,0,0,1,15.41,13.37V29.48h29.18V147.05H180.91V129.86a43.4,43.4,0,0,1-15.41,13.69A46.26,46.26,0,0,1,142.85,149a47.82,47.82,0,0,1-26.38-7.64,53,53,0,0,1-18.83-21.54q-6.93-13.9-6.93-31.94m90.2.42q0-10.82-4.13-18.56A29.61,29.61,0,0,0,165.6,57.81a29.26,29.26,0,0,0-15.1-4.14,28.73,28.73,0,0,0-14.89,4,29.87,29.87,0,0,0-11.07,11.77,37.68,37.68,0,0,0-4.25,18.36,38.91,38.91,0,0,0,4.25,18.57,31,31,0,0,0,11.17,12.2,27.84,27.84,0,0,0,14.79,4.25,29.26,29.26,0,0,0,15.1-4.14,29.61,29.61,0,0,0,11.18-11.89q4.14-7.74,4.13-18.57"/><rect class="cls-1" x="222.95" y="0.41" width="29.71" height="146.64"/><path class="cls-1" d="M380.26,85.72a69.74,69.74,0,0,1-.85,11.46h-86q1.07,12.73,8.92,19.95a27.47,27.47,0,0,0,19.31,7.21q16.55,0,23.55-14.22h32.05A53.61,53.61,0,0,1,357.76,138Q343.33,149,322.32,149a61.38,61.38,0,0,1-30.45-7.53,53.19,53.19,0,0,1-21-21.33q-7.53-13.8-7.53-31.84,0-18.24,7.43-32A51.78,51.78,0,0,1,291.55,35q13.38-7.42,30.77-7.43a61.8,61.8,0,0,1,30,7.22,50.73,50.73,0,0,1,20.59,20.47q7.32,13.27,7.32,30.46m-30.77-8.49q-.21-11.46-8.28-18.36T321.47,52q-11,0-18.56,6.68t-9.24,18.57Z"/><path class="cls-1" d="M458.25,27.78q21,0,33.95,13.27t12.95,37v69H475.44V82.11q0-14-7-21.54T449.33,53q-12.3,0-19.41,7.53t-7.11,21.54v64.94H393.1V29.48h29.71V44.12a41.08,41.08,0,0,1,15.17-12,46.93,46.93,0,0,1,20.27-4.35"/><path class="cls-1" d="M225.93,242.15a70.85,70.85,0,0,1-.85,11.46h-86q1.06,12.74,8.92,19.95a27.47,27.47,0,0,0,19.31,7.21q16.54,0,23.55-14.22H223a53.61,53.61,0,0,1-19.53,27.91Q189,305.38,168,305.39a61.39,61.39,0,0,1-30.45-7.54,53,53,0,0,1-21-21.32Q109,262.73,109,244.69q0-18.24,7.43-32a51.78,51.78,0,0,1,20.79-21.22Q150.6,184,168,184a61.91,61.91,0,0,1,30,7.21,50.76,50.76,0,0,1,20.59,20.48q7.32,13.27,7.32,30.46m-30.77-8.49q-.21-11.46-8.28-18.36t-19.73-6.89q-11,0-18.57,6.68t-9.24,18.57Z"/><path class="cls-1" d="M353,242.15a69.74,69.74,0,0,1-.85,11.46H266.24q1.06,12.74,8.91,19.95a27.47,27.47,0,0,0,19.31,7.21q16.56,0,23.56-14.22h32a53.54,53.54,0,0,1-19.52,27.91q-14.43,10.92-35.44,10.93a61.4,61.4,0,0,1-30.46-7.54,53,53,0,0,1-21-21.32q-7.54-13.8-7.54-31.84,0-18.24,7.43-32a51.74,51.74,0,0,1,20.8-21.22Q277.7,184,295.1,184a62,62,0,0,1,30,7.21,50.79,50.79,0,0,1,20.58,20.48Q353,225,353,242.15m-30.77-8.49q-.21-11.46-8.28-18.36t-19.73-6.89q-11,0-18.57,6.68t-9.23,18.57Z"/><polygon class="cls-1" points="435.35 303.48 395.46 253.39 395.46 303.48 365.75 303.48 365.75 163.59 395.46 163.59 395.46 236.54 420.53 236.54 473.98 303.48 435.35 303.48"/><path class="cls-1" d="M582.05,242.15a69.74,69.74,0,0,1-.85,11.46H495.26q1,12.74,8.91,19.95a27.47,27.47,0,0,0,19.31,7.21q16.54,0,23.56-14.22h32a53.54,53.54,0,0,1-19.52,27.91q-14.43,10.92-35.44,10.93a61.4,61.4,0,0,1-30.46-7.54,53.1,53.1,0,0,1-21-21.32q-7.53-13.8-7.53-31.84,0-18.24,7.43-32a51.74,51.74,0,0,1,20.8-21.22Q506.72,184,524.12,184a62,62,0,0,1,30,7.21,50.79,50.79,0,0,1,20.58,20.48q7.32,13.27,7.32,30.46m-30.77-8.49q-.21-11.46-8.28-18.36t-19.73-6.89q-11,0-18.57,6.68t-9.23,18.57Z"/><path class="cls-1" d="M623.91,204.16A40.9,40.9,0,0,1,660,184.21v31.2h-7.85q-14,0-21.12,6.58t-7.11,22.92v58.57H594.2V185.91h29.71Z"/><path class="cls-2" d="M437.17,178.74a17.05,17.05,0,1,1-17.05,17,17.05,17.05,0,0,1,17.05-17"/><path class="cls-1" d="M52.33,306.06A63,63,0,0,1,26,300.76,46.51,46.51,0,0,1,7.46,286.38,36.4,36.4,0,0,1,0,266.27H30.49a16.6,16.6,0,0,0,6.81,11.46q5.94,4.54,14.81,4.55,8.66,0,13.52-3.47A10.46,10.46,0,0,0,70.49,270q0-5.83-5.94-8.76t-18.93-6.38a159.57,159.57,0,0,1-21.94-6.7A38.11,38.11,0,0,1,9,237.51q-6.17-7.12-6.16-19.24A31.08,31.08,0,0,1,8.54,200.1q5.73-8.21,16.43-13t25.2-4.76q21.4,0,34.16,10.71t14.06,28.86h-29a15.66,15.66,0,0,0-5.95-11.35q-5.3-4.22-14.16-4.21-8.22,0-12.65,3a9.67,9.67,0,0,0-4.43,8.44q0,6,6.05,9.19t18.82,6.37a159.93,159.93,0,0,1,21.4,6.71,37.71,37.71,0,0,1,14.6,10.7q6.16,7.24,6.38,19.14a31.75,31.75,0,0,1-5.73,18.6Q88,296.77,77.3,301.41t-25,4.65"/><path class="cls-1" d="M54,110.76c0,4,1,6.83,2.87,8.59S62,122,66.49,122h13.8v25H61.61q-37.56,0-37.56-36.5V54.06H.88V29.17H24.05V.41H54Z"/><path class="cls-2" d="M77.09,25.41A16.42,16.42,0,1,1,60.67,41.83,16.42,16.42,0,0,1,77.09,25.41"/><path class="cls-1" d="M562.06,53.48v56.87q0,5.94,2.87,8.6t9.66,2.65h13.79v25H569.7q-37.56,0-37.56-36.5V53.42H508.77V28.94h23.37V0h29.92V29.07h26.32V53.48Z"/></svg>