<svg id="Layer_1" data-name="Layer 1" xmlns="http://www.w3.org/2000/svg" viewBox="0 0 1099.06 128.38"><defs><style>.cls-1{fill:#fc0;}.cls-2{fill:#fff;fill-rule:evenodd;}</style></defs><path class="cls-1" d="M77.18,74.51q0-15.18,5.9-26.94a44.11,44.11,0,0,1,16-18.08,41.9,41.9,0,0,1,22.65-6.33A38.76,38.76,0,0,1,154,39.07V24.79h24.86V125H154V110.32A37.05,37.05,0,0,1,140.9,122a39.41,39.41,0,0,1-19.3,4.61,40.74,40.74,0,0,1-22.48-6.51,45.28,45.28,0,0,1-16-18.35q-5.91-11.85-5.9-27.22m76.85.37a33.19,33.19,0,0,0-3.52-15.83A25.16,25.16,0,0,0,128.12,45.4a24.52,24.52,0,0,0-12.69,3.44,25.56,25.56,0,0,0-9.43,10,32.1,32.1,0,0,0-3.62,15.64A33.17,33.17,0,0,0,106,90.34a26.45,26.45,0,0,0,9.52,10.39,23.7,23.7,0,0,0,12.6,3.62A25.16,25.16,0,0,0,150.51,90.7,33.17,33.17,0,0,0,154,74.88"/><rect class="cls-1" x="189.84" width="25.31" height="124.96"/><path class="cls-1" d="M323.88,72.7a60,60,0,0,1-.72,9.77H249.93q.9,10.85,7.59,17A23.46,23.46,0,0,0,274,105.61q14.1,0,20.07-12.11h27.3a45.63,45.63,0,0,1-16.64,23.78q-12.29,9.3-30.19,9.31a52.26,52.26,0,0,1-25.95-6.42A45.24,45.24,0,0,1,230.67,102q-6.42-11.76-6.42-27.13,0-15.54,6.33-27.3A44.22,44.22,0,0,1,248.3,29.49q11.38-6.33,26.22-6.33a52.62,52.62,0,0,1,25.58,6.15,43.22,43.22,0,0,1,17.54,17.45q6.24,11.3,6.24,25.94m-26.22-7.23q-.18-9.76-7.05-15.64A25,25,0,0,0,273.79,44,23,23,0,0,0,258,49.65q-6.42,5.7-7.86,15.82Z"/><path class="cls-1" d="M390.33,23.34q17.9,0,28.93,11.3t11,31.56V125H405V69.63q0-11.92-6-18.35t-16.28-6.42q-10.49,0-16.54,6.42t-6.06,18.35V125H334.82V24.79h25.31V37.27a35,35,0,0,1,12.93-10.22,40,40,0,0,1,17.27-3.71"/><path class="cls-1" d="M729.93,73.92a60,60,0,0,1-.73,9.77H656q.91,10.85,7.6,17A23.4,23.4,0,0,0,680,106.83q14.1,0,20.07-12.11h27.3a45.59,45.59,0,0,1-16.63,23.77q-12.3,9.32-30.2,9.31a52.32,52.32,0,0,1-25.94-6.41,45.18,45.18,0,0,1-17.9-18.17q-6.42-11.76-6.42-27.13,0-15.54,6.33-27.3a44.1,44.1,0,0,1,17.72-18.08q11.39-6.33,26.21-6.33a52.66,52.66,0,0,1,25.59,6.15A43.28,43.28,0,0,1,723.69,48q6.24,11.3,6.24,25.94m-26.22-7.23q-.18-9.76-7.05-15.64a25,25,0,0,0-16.82-5.88A23,23,0,0,0,664,50.87q-6.42,5.7-7.87,15.82Z"/><path class="cls-1" d="M838.22,73.92a60.11,60.11,0,0,1-.72,9.77H764.27q.9,10.85,7.59,17a23.42,23.42,0,0,0,16.46,6.15q14.1,0,20.07-12.11h27.3a45.61,45.61,0,0,1-16.64,23.77q-12.28,9.32-30.19,9.31a52.38,52.38,0,0,1-26-6.41A45.24,45.24,0,0,1,745,103.22q-6.42-11.76-6.42-27.13,0-15.54,6.33-27.3a44.16,44.16,0,0,1,17.72-18.08q11.4-6.33,26.22-6.33a52.62,52.62,0,0,1,25.58,6.15A43.22,43.22,0,0,1,832,48q6.24,11.3,6.24,25.94M812,66.69q-.18-9.76-7-15.64a25,25,0,0,0-16.81-5.88,23,23,0,0,0-15.83,5.7q-6.4,5.7-7.86,15.82Z"/><polygon class="cls-1" points="908.36 126.18 874.37 83.5 874.37 126.18 849.05 126.18 849.05 0 874.37 0 874.37 69.14 895.73 69.14 941.27 126.18 908.36 126.18"/><path class="cls-1" d="M1033.35,73.92a60.11,60.11,0,0,1-.72,9.77H959.4q.9,10.85,7.59,17a23.42,23.42,0,0,0,16.46,6.15q14.1,0,20.07-12.11h27.3a45.65,45.65,0,0,1-16.63,23.77q-12.3,9.32-30.2,9.31a52.38,52.38,0,0,1-26-6.41,45.24,45.24,0,0,1-17.9-18.17q-6.42-11.76-6.42-27.13,0-15.54,6.33-27.3a44.16,44.16,0,0,1,17.72-18.08q11.4-6.33,26.22-6.33a52.69,52.69,0,0,1,25.59,6.15A43.25,43.25,0,0,1,1027.11,48q6.24,11.3,6.24,25.94m-26.22-7.23q-.18-9.76-7-15.64a25,25,0,0,0-16.81-5.88,23,23,0,0,0-15.82,5.7q-6.42,5.7-7.87,15.82Z"/><path class="cls-1" d="M1068.32,41.56a34.8,34.8,0,0,1,30.74-17V51.14h-6.7q-11.92,0-18,5.6t-6,19.53v49.91H1043V26h25.32Z"/><path class="cls-2" d="M909.91,19.9a14.53,14.53,0,1,1-14.52,14.53A14.53,14.53,0,0,1,909.91,19.9"/><path class="cls-1" d="M582,128.38a53.77,53.77,0,0,1-22.47-4.52,39.6,39.6,0,0,1-15.76-12.25,31.12,31.12,0,0,1-6.35-17.13h26a14.13,14.13,0,0,0,5.8,9.76,20.18,20.18,0,0,0,12.62,3.87q7.36,0,11.51-3a8.9,8.9,0,0,0,4.15-7.55q0-5-5.07-7.46T576.3,84.71A135.78,135.78,0,0,1,557.6,79a32.36,32.36,0,0,1-12.53-9q-5.25-6.07-5.25-16.39A26.51,26.51,0,0,1,544.7,38.1a32.79,32.79,0,0,1,14-11Q567.83,23,580.17,23q18.24,0,29.11,9.12t12,24.6H596.57A13.36,13.36,0,0,0,591.5,47q-4.51-3.6-12.07-3.6c-4.66,0-8.26.86-10.77,2.58a8.23,8.23,0,0,0-3.78,7.19q0,5.16,5.16,7.83t16,5.43a138,138,0,0,1,18.24,5.71,32.22,32.22,0,0,1,12.43,9.13q5.25,6.16,5.44,16.3a27.08,27.08,0,0,1-4.88,15.85,32.26,32.26,0,0,1-14,11,53.05,53.05,0,0,1-21.28,4"/><path class="cls-1" d="M45.19,93.92q0,5.06,2.44,7.31t8.22,2.26H67.59V124.8H51.69q-32,0-32-31.06V45.66H0V24.48H19.72V0H45.19Z"/><path class="cls-2" d="M64.87,21.28a14,14,0,1,1-14,14,14,14,0,0,1,14-14"/><path class="cls-1" d="M477,45.73V94c0,3.36.81,5.8,2.43,7.3s4.36,2.25,8.2,2.25h11.71V124.8H483.46q-31.89,0-31.89-31V45.68H431.74V24.9h19.83V.34H477V25h22.34V45.73Z"/></svg>