<svg id="Layer_1" data-name="Layer 1" xmlns="http://www.w3.org/2000/svg" viewBox="0 0 394.23 284.05"><defs><style>.cls-1{fill:#fc0;}.cls-2{fill:#fff;fill-rule:evenodd;}</style></defs><path class="cls-1" d="M305.36,284.05q-27.72,0-49.74-10T220.77,247A68.64,68.64,0,0,1,206.71,209h57.48q1.62,13.05,12.84,21.61T305,239.21q16.31,0,25.48-6.53T339.6,216q0-11-11.21-16.51t-35.67-12q-25.28-6.12-41.38-12.64a71.91,71.91,0,0,1-27.72-20Q212,141.38,212,118.55a58.56,58.56,0,0,1,10.8-34.25q10.8-15.49,31-24.46t47.49-9q40.35,0,64.41,20.18t26.5,54.42H337.56q-1.21-13.44-11.21-21.4t-26.7-7.95q-15.5,0-23.85,5.71a18.18,18.18,0,0,0-8.35,15.9q0,11.42,11.41,17.32t35.47,12q24.45,6.1,40.36,12.63a71.37,71.37,0,0,1,27.51,20.18q11.63,13.67,12,36.08A59.84,59.84,0,0,1,383.42,251q-10.8,15.5-31,24.25t-47.08,8.77"/><path class="cls-1" d="M100,207.81q0,11.17,5.4,16.18t18.18,5h26v47.16H114.37q-70.73,0-70.73-68.74V101H0V54.17H43.64V0H100Z"/><path class="cls-2" d="M143.52,47.08A30.92,30.92,0,1,1,112.6,78a30.92,30.92,0,0,1,30.92-30.91"/></svg>